<svg width="80" height="80" viewBox="0 0 80 80" fill="none" xmlns="http://www.w3.org/2000/svg">
<path fill-rule="evenodd" clip-rule="evenodd" d="M40.0002 70C56.5687 70 70.0002 56.5685 70.0002 40C70.0002 23.4314 56.5687 9.99999 40.0002 9.99999C23.4316 9.99999 10.0002 23.4314 10.0002 40C10.0002 56.5685 23.4316 70 40.0002 70ZM40.0002 76.6667C60.2506 76.6667 76.6668 60.2504 76.6668 40C76.6668 19.7496 60.2506 3.33333 40.0002 3.33333C19.7497 3.33333 3.3335 19.7496 3.3335 40C3.3335 60.2504 19.7497 76.6667 40.0002 76.6667Z" fill="white"/>
<path d="M33.3335 26.6667L53.3335 40L33.3335 53.3333V26.6667Z" fill="white"/>
</svg>
