<svg width="461" height="262" viewBox="0 0 461 262" fill="none" xmlns="http://www.w3.org/2000/svg">
<g clip-path="url(#clip0_201_29)">
<path d="M47.1106 76.8991C47.1106 76.8991 54.1767 78.0969 67.2994 76.5971C80.4221 75.0974 85.8024 72.6816 83.2788 68.9272C80.7552 65.1729 73.356 67.2667 68.3088 65.616C64.7304 64.7227 61.0895 64.1002 57.417 63.7538C57.2656 60.1705 55.7514 55.7015 54.6107 54.1313C52.824 51.7257 53.3086 56.4664 53.3692 60.412C53.3751 61.3768 53.2356 62.3371 52.9553 63.2606C47.4974 62.6175 42.0074 62.2815 36.5115 62.2541C32.7046 62.4227 29.026 63.6768 25.9124 65.8676C25.0443 66.4715 23.7321 69.3401 22.5511 72.9133C17.9077 71.3834 8.64099 72.3697 5.80447 73.5675C2.27144 75.0571 8.70155 75.3792 14.0011 76.0233C16.4827 76.3253 18.8546 77.2196 20.9157 78.6303C20.7037 79.5161 20.512 80.4017 20.3605 81.2472C19.7751 84.3976 19.018 91.3125 18.4325 98.4186C13.6276 99.4252 6.17796 101.116 4.6638 102.093C4.6638 102.093 1.88785 103.552 10.4681 103.331L18.0994 102.717C17.6855 108.514 17.4332 114.05 17.4938 117.513C17.5947 122.475 17.8067 134.02 18.1903 144.306C14.2737 143.723 9.92299 143.179 8.6612 143.421C8.6612 143.421 5.79439 143.743 12.9412 146.299L18.3417 147.9C18.6041 153.939 18.9271 159.143 19.3511 161.74C20.2091 167.145 20.2596 183.179 20.5523 194.1C18.0086 193.868 13.0623 193.556 9.71099 194.281C6.33869 195.138 3.07933 196.388 0.000206916 198.005C0.000206916 198.005 -0.0603569 198.508 0.949081 198.397C1.95852 198.287 15.7979 196.686 20.724 198.981C20.8047 200.773 20.9057 202.242 21.0268 203.269C21.3397 205.816 21.4205 209.308 21.6628 212.932C19.7252 212.705 17.7657 212.742 15.8383 213.043C13.9904 213.543 12.2107 214.266 10.5387 215.196C10.5387 215.196 10.5387 215.488 11.0536 215.418C11.5684 215.347 19.2603 214.411 21.8949 215.79C22.3996 220.934 23.4595 225.664 26.2456 227.194C31.4644 230.053 35.3305 227.798 39.3683 225.684C43.406 223.571 55.8524 216.062 60.2333 207.637C64.6143 199.213 70.6608 191.533 72.8513 183.108C75.0418 174.684 80.0789 161.297 81.5931 155.58C83.1072 149.862 83.9551 117.815 83.4504 113.899C82.9457 109.984 77.8985 99.9083 71.8419 95.389C65.7852 90.8697 48.9579 93.7384 45.5965 92.5306C42.2351 91.3227 43.9107 82.9081 44.587 79.8986C45.2634 76.889 47.1106 76.8991 47.1106 76.8991ZM46.7675 106.843C51.9863 106.843 61.2428 106.843 62.2522 109.551C63.2616 112.259 60.8996 127.447 62.0806 131.966C63.2617 136.486 64.6042 154.231 63.9279 158.136C63.2516 162.042 60.8996 180.28 58.376 187.024C55.8524 193.767 44.4154 208.443 42.0634 210.506C39.7115 212.569 38.5305 212.459 39.7014 202.222C40.8723 191.986 44.2439 164.316 42.7297 156.032C41.2156 147.749 40.7108 125.947 41.054 120.23C41.3972 114.513 41.8919 109.692 41.8919 109.692C41.8919 109.692 41.5588 106.843 46.7675 106.843V106.843Z" fill="white"/>
<path d="M152.092 94.5235C152.597 84.6192 156.635 67.508 157.806 62.1432C158.271 59.3444 158.578 56.5217 158.724 53.6884C162.14 52.3066 165.15 50.0875 167.476 47.2366C168.909 44.9518 165.023 47.146 161.672 48.6961C160.818 49.0851 159.915 49.3528 158.987 49.4913C159.592 38.4194 159.744 24.2272 158.31 21.3787C156.13 17.0204 143.169 17.1815 140.645 22.7174C138.122 28.2534 138.122 58.2882 135.941 66.1693C133.761 74.0504 132.408 93.1745 131.56 95.3587C130.712 97.5429 119.114 107.94 115.914 112.299C112.714 116.657 114.067 104.589 115.914 98.8816C117.761 93.1745 118.104 74.3927 119.79 66.6726C121.476 58.9525 118.276 35.138 118.276 25.9081C118.276 16.6782 115.248 13.8298 107.505 14.1619C99.7629 14.4941 97.9157 20.3721 97.9157 20.3721C97.5063 21.2401 97.3058 22.1914 97.3302 23.1502C92.4445 21.9423 84.3084 22.9791 81.6839 24.2172C78.1509 25.888 84.581 26.2302 89.8805 26.9549C92.5093 27.3312 94.9883 28.4055 97.0577 30.0652C96.8962 42.6065 97.6431 63.6832 97.411 71.202C97.0778 81.9416 95.2205 111.634 94.5542 123.542C93.888 135.449 110.362 138.64 115.076 129.581C119.79 120.522 132.408 107.266 132.408 107.266C131.673 113.393 131.279 119.556 131.227 125.726C131.227 134.946 133.579 143.501 133.246 158.438C132.913 173.375 126.352 181.085 123.485 182.756C120.618 184.427 122.142 172.026 121.637 168.332C121.133 164.638 119.285 160.954 112.886 160.954C106.486 160.954 102.791 166.994 101.62 173.536C100.449 180.079 99.2582 203.39 108.686 207.255C118.114 211.12 122.314 202.886 130.551 189.802C138.788 176.717 141.321 168.332 148.054 143.672C154.787 119.012 151.587 104.418 152.092 94.5235Z" fill="white"/>
<path d="M151.779 87.7597C151.779 87.7597 149.76 90.608 152.526 92.1581C155.292 93.7082 162.62 87.9408 164.104 85.6559C165.588 83.3711 161.661 85.5552 158.3 87.1154C156.256 88.039 153.965 88.2656 151.779 87.7597V87.7597Z" fill="white"/>
<path d="M220.491 104.991C218.548 105.42 216.536 105.438 214.586 105.042C214.525 100.613 214.445 97.2812 214.334 96.0331C213.92 91.1615 212.315 67.7596 210.639 62.9786C208.963 58.1975 207.268 44.861 205.34 41.0865C203.412 37.312 201.887 28.1728 195.407 31.8668C188.926 35.5608 182.88 40.7543 182.203 57.6137C181.969 62.8972 181.317 68.1543 180.255 73.3358C176.036 71.5039 166.123 74.2115 163.408 76.0937C160.319 78.2577 166.436 77.6941 171.564 77.6438C174.143 77.6522 176.667 78.3808 178.852 79.7473C177.307 86.33 175.682 92.3793 175.056 98.6298C173.795 111.131 165.548 135.871 163.529 150.215C161.51 164.558 157.553 168.584 157.724 180.078C157.724 180.078 158.734 184.266 156.463 184.769C154.191 185.272 143.925 185.695 143.34 188.634C142.754 191.573 143.925 200.793 143.764 203.561C143.602 206.329 143.168 216.142 143.007 219.746C142.845 223.349 144.349 233.424 148.054 229.227C151.759 225.03 154.868 218.155 154.444 213.626C154.02 209.097 155.706 205.403 156.291 202.131C156.877 198.86 156.382 195.176 157.644 195.176C158.905 195.176 173.451 195.086 177.489 195.257C181.527 195.428 188.26 194.925 192.469 195.257C196.679 195.589 207.358 196.515 209.125 197.854C210.891 199.192 210.215 212.539 210.134 218.578C210.054 224.617 209.458 238.115 211.225 238.367C212.991 238.618 218.543 237.36 220.733 229.811C222.924 222.262 225.861 210.103 225.528 204.819C225.195 199.535 226.538 193.999 226.619 191.654C226.637 190.336 226.285 189.039 225.601 187.911C224.918 186.783 223.931 185.869 222.752 185.272C220.229 184.105 214.758 184.437 214.677 182.595C214.596 180.753 214.425 158.599 214.586 147.698C214.697 140.864 214.737 124.206 214.647 111.524C219.764 111.061 227.295 106.974 229.354 104.75C232.08 101.8 225.811 103.763 220.491 104.991ZM193.236 181.085C191.631 182.092 183.98 183.43 177.923 182.595C171.867 181.759 167.072 184.105 168.919 175.801C170.766 167.497 170.857 156.173 173.714 150.386C176.571 144.598 177.247 129.661 177.752 126.732C178.256 123.803 185.666 100.814 186.837 95.107C186.837 95.107 188.603 84.0353 189.865 80.4319C191.127 76.8285 192.984 72.1279 193.993 84.0351C195.003 95.9424 192.984 113.396 192.984 118.338C192.984 123.28 191.722 138.891 192.389 144.93C193.055 150.969 194.327 166.993 194.498 169.842C194.67 172.69 194.821 180.078 193.226 181.085H193.236Z" fill="white"/>
<path d="M292.858 147.195C293.625 140.904 293.494 125.806 292.737 121.156C291.98 116.506 296.522 68.9373 296.522 60.7643C296.522 57.3622 297.027 50.7593 297.632 43.6532C302.68 42.7172 309.917 37.614 311.714 35.0977C314.066 31.8366 308.09 34.5542 302.952 36.3962C301.424 36.9417 299.811 37.2144 298.188 37.2015C298.884 29.3304 299.56 21.8719 299.682 18.4698C299.924 11.0416 293.494 9.53181 284.661 10.9208C275.829 12.3098 277.09 18.2182 276.454 21.2378C275.818 24.2574 271.912 21.6101 271.912 21.6101C271.912 21.6101 257.78 16.2051 247.181 15.7018C236.582 15.1986 237.218 32.5612 238.348 35.8325C239.479 39.1037 239.994 52.3094 240.246 57.2212C240.498 62.1331 239.358 80.9954 240.751 84.2666C242.144 87.5378 256.013 98.8613 259.294 101.126C262.575 103.391 257.406 106.159 254.247 107.296C251.087 108.434 240.498 114.845 237.339 118.871C234.179 122.897 233.049 134.976 233.432 142.021C233.816 149.067 235.572 176.998 235.451 183.038C235.33 189.077 232.039 205.05 234.058 212.479C236.077 219.907 240.115 233.988 242.638 236.253C245.162 238.517 245.041 228.704 245.293 225.06C245.545 221.417 244.536 211.22 245.041 206.439C245.545 201.658 248.069 185.051 248.826 179.132C249.583 173.214 251.976 158.75 252.107 152.711C252.238 146.672 252.864 129.943 253.369 126.672C253.873 123.401 262.322 120.884 268.51 115.852C274.698 110.819 272.8 115.469 273.305 117.865C273.81 120.26 270.65 130.195 270.65 137.24C270.65 144.286 273.678 153.969 274.314 158.498C274.95 163.028 271.912 171.714 272.669 177.502C273.426 183.289 281.249 185.302 285.418 185.302C289.587 185.302 287.568 176.616 287.568 174.1C287.568 171.583 292.111 153.486 292.858 147.195ZM273.81 82.0221C273.426 88.0612 274.183 93.2249 270.529 91.9667C266.875 90.7086 260.939 83.1596 259.546 79.8883C258.153 76.6171 260.939 52.8328 260.051 48.4343C259.194 42.7291 258.856 36.9581 259.042 31.1922C259.294 28.3035 262.07 29.6825 264.089 30.1857C266.108 30.689 274.94 36.1042 275.193 40.382C275.193 40.3518 274.183 75.9829 273.81 82.0221Z" fill="white"/>
<path d="M358.855 149.591C356.836 147.447 341.947 134.11 340.938 132.6C339.928 131.091 341.695 129.208 350.022 119.646C358.35 110.084 366.173 101.65 367.314 94.6038C368.455 87.5581 368.697 71.202 366.042 61.1366C363.387 51.0713 355.07 55.3492 350.901 56.7382C346.732 58.1272 348.761 81.3981 348.761 88.313C348.761 95.2278 348.256 96.8686 345.985 102.284C343.713 107.699 334.376 122.414 333.367 122.414C332.357 122.414 329.834 120.15 329.702 118.892C329.571 117.633 331.984 109.833 332.993 100.643C334.003 91.4534 332.731 80.3916 332.61 66.4209C332.611 64.7857 332.431 63.1556 332.075 61.5596C335.567 58.3085 338.999 53.5878 339.837 51.4237C341.25 47.8002 336.506 52.3297 332.337 55.8123C331.656 56.3734 330.93 56.8783 330.167 57.3221C327.139 53.4067 321.94 54.3023 319.608 54.8458C316.206 55.6007 311.028 58.3687 310.523 61.8915C310.018 65.4144 311.028 80.1401 311.028 80.1401C311.29 85.2935 308 126.561 308.504 133.607C309.009 140.653 304.971 180.914 304.971 188.594C304.971 189.51 304.971 190.667 304.971 191.996C301.438 191.201 296.431 191.553 294.645 192.278C291.97 193.365 296.664 193.989 300.469 194.824C302.094 195.199 303.607 195.955 304.88 197.028C304.78 201.206 304.638 206.087 304.497 210.536C300.055 209.922 291.374 216.374 289.527 219.192C287.508 222.302 292.919 219.544 297.602 217.632C299.716 216.795 302.008 216.504 304.265 216.787C304.123 220.471 303.982 223.389 303.871 224.698C303.487 229.227 311.189 231.371 312.835 227.345C314.48 223.319 316.994 213.002 318.003 207.97C319.013 202.937 322.798 176.888 323.303 173.113C323.807 169.339 326.462 156.002 326.705 151.976C326.947 147.95 328.986 148.705 329.995 148.705C331.005 148.705 334.911 152.731 338.444 154.875C341.977 157.019 344.501 158.267 345.137 160.663C345.773 163.058 345.258 177.27 344.37 181.92C343.481 186.571 341.977 207.335 342.987 215.77C343.996 224.205 342.351 226.208 341.846 231.24C341.341 236.273 341.473 255.9 342.734 260.43C343.996 264.959 348.67 258.668 350.689 254.642C352.708 250.616 352.445 247.596 352.576 241.809C352.708 236.021 356.866 228.472 357.997 224.446C359.128 220.42 360.4 213.505 361.409 207.335C363.188 194.107 364.283 180.797 364.69 167.457C365.164 151.221 360.874 151.725 358.855 149.591Z" fill="white"/>
<path d="M450.28 53.1953C446.909 53.7452 443.451 53.2936 440.337 51.8968C440.266 49.9918 440.08 48.0928 439.781 46.21C438.267 37.9866 432.039 39.1642 424.801 41.3383C417.564 43.5124 419.754 52.2492 418.412 59.2949C417.069 66.3406 418.24 80.4319 417.402 87.3065C416.564 94.1811 415.383 141.991 415.383 141.991C415.383 141.991 414.041 148.031 412.527 149.54C411.013 151.05 400.07 166.148 398.395 165.987C396.719 165.826 398.395 146.36 398.556 141.659C398.718 136.959 400.575 113.476 400.575 110.286C400.575 107.095 400.747 92.5103 399.566 88.8163C398.384 85.1223 400.918 65.6662 401.756 61.4689C402.543 57.5636 403.906 46.7838 399.576 42.2242C402.044 38.9513 403.745 35.1677 404.552 31.1523C404.805 28.2636 402.352 32.501 400.1 35.8729C398.869 37.7006 397.158 39.156 395.154 40.0801C389.824 39.3454 383.374 43.0997 381.739 43.8748C379.72 44.8813 380.891 57.1307 380.891 57.1307C377.53 70.3867 379.377 91.1817 380.558 94.2013C381.567 96.8284 379.811 112.379 378.448 121.579C374.188 119.415 362.963 124.196 360.278 126.763C357.351 129.511 363.741 127.98 369.131 127.145C371.987 126.739 374.9 127.177 377.509 128.403C376.631 138.197 376.964 158.247 377.509 174.06C378.186 191.835 386.766 192.338 391.813 191.171C396.86 190.003 404.593 174.06 407.621 168.524C410.174 164.247 413.103 160.205 416.373 156.445C416.373 156.445 416.201 175.569 416.201 181.941C416.201 188.312 417.887 207.778 422.762 207.436C427.638 207.094 428.153 203.41 429.828 198.881C431.423 194.613 430.616 169.55 431.08 164.608C434.108 164.86 439.6 162.535 441.094 161.266C442.911 159.716 439.075 160.653 435.774 161.196C434.389 161.419 432.971 161.33 431.625 160.934C432.069 157.995 432.635 153.838 433.129 150.044C439.125 150.607 451.885 145.595 455.337 143.089C459.375 140.16 451.097 142.243 444.233 143.552C440.832 144.213 437.324 144.093 433.977 143.199C434.038 142.525 434.078 141.951 434.098 141.508C434.27 137.653 435.441 118.7 436.45 111.987C437.228 106.873 437.894 95.3185 438.54 88.0412C441.516 87.5489 444.354 86.4341 446.868 84.77C448.695 83.22 444.849 84.1562 441.558 84.6997C440.668 84.8296 439.763 84.8296 438.873 84.6997C438.964 83.9247 439.055 83.2602 439.146 82.7569C439.691 79.7374 440.438 68.8973 440.498 59.3453C445.677 60.5934 457.214 55.8325 460.172 53.3061C463.503 50.4173 456.326 52.1988 450.28 53.1953Z" fill="white"/>
<path fill-rule="evenodd" clip-rule="evenodd" d="M48.675 2.33513C50.6131 14.7859 46.8984 33.8397 45.4145 42.4858C44.6676 46.21 42.5477 48.2732 41.6191 43.3009C40.2765 39.2748 40.3068 34.5542 40.1958 29.5014C38.2068 29.7414 36.2014 29.8188 34.1997 29.7329C33.7959 34.5743 33.3821 40.4625 31.2522 45.3643C28.7589 53.4166 27.0832 42.5059 26.7904 38.6911C26.2049 31.0717 25.9425 13.2057 27.8907 12.9138C36.3397 9.61235 34.4319 20.6642 34.5934 26.1095C35.9662 25.9585 39.2065 25.586 40.3775 24.9518C41.2557 17.6545 41.3869 7.17668 43.1231 0.714749C44.6474 -0.915832 47.6353 0.563631 48.675 2.33513Z" fill="white"/>
<path fill-rule="evenodd" clip-rule="evenodd" d="M26.7905 7.2872C25.6801 9.0889 19.1693 9.21972 18.6242 10.035C21.8039 21.2478 20.9762 34.1919 18.1396 46.4515C14.3643 49.3704 12.0225 43.4318 11.3058 40.6035C9.43832 33.2457 12.1436 19.0536 11.5177 11.4141C9.60989 11.857 1.85742 12.7829 2.50346 9.61235C3.01827 7.0457 5.53177 5.93857 8.43895 4.64015C19.6841 -0.432769 29.2737 4.62996 26.7905 7.2872Z" fill="white"/>
<path fill-rule="evenodd" clip-rule="evenodd" d="M70.5495 15.2794C67.9957 16.5073 64.6342 14.5848 63.4835 17.7453C63.1302 20.1207 62.8475 22.9591 62.474 25.9787C64.8312 25.3624 67.2663 25.0945 69.7016 25.1835C72.0838 25.3143 72.7299 26.1901 72.3766 27.7603C71.5489 31.7864 65.4519 30.8302 61.3939 31.5851C61.1113 34.7255 59.375 39.7177 61.4847 40.5028C63.5945 41.2879 75.2838 37.725 76.4749 39.9595C77.9487 42.7375 75.9197 43.8849 72.9217 45.3947C69.9237 46.9045 60.5258 46.4012 57.2148 45.8879C55.8529 45.8328 54.5576 45.2854 53.5708 44.3479C51.8144 41.3283 52.3393 37.6747 52.6118 33.1755C52.9222 29.1511 53.4478 25.146 54.1865 21.1775C54.7619 18.6108 55.6906 11.7363 59.3145 10.9109C61.2526 10.2265 67.39 9.1898 70.0549 10.6996C72.7198 12.2094 73.0933 14.0514 70.5495 15.2794Z" fill="white"/>
<path d="M2.89717 30.1757C2.89717 30.1757 12.8502 26.3006 15.3132 27.9815C17.7763 29.6624 16.3732 32.8631 14.96 32.1888C13.5467 31.5144 -2.7254 32.1888 2.89717 30.1757Z" fill="white"/>
<path d="M59.1531 5.12315C59.1531 5.12315 49.6543 8.80712 47.3124 7.20674C44.9705 5.60635 46.303 2.55657 47.6455 3.18061C48.9881 3.80466 64.5031 3.21074 59.1531 5.12315Z" fill="white"/>
<path d="M70.0347 53.1851C70.0347 53.1851 66.4007 46.3911 68.0158 44.7102C69.6309 43.0292 72.5987 43.9955 71.9627 44.9517C71.3268 45.9079 71.9325 57.0199 70.0347 53.1851Z" fill="white"/>
</g>
<defs>
<clipPath id="clip0_201_29">
<rect width="461" height="262" fill="white"/>
</clipPath>
</defs>
</svg>
